<?xml version="1.0"?>
<svg width="26.988" height="26.988" xmlns="http://www.w3.org/2000/svg">

 <g>
  <title>background</title>
  <rect fill="none" id="canvas_background" height="402" width="582" y="-1" x="-1"/>
 </g>
 <g>
  <title>Layer 1</title>
  <ellipse ry="3.187493" rx="3" id="svg_25" cy="6.087765" cx="6.119016" stroke-width="0" stroke="#bf0000" fill="#fff"/>
  <ellipse ry="3.187493" rx="3.031244" id="svg_26" cy="6.087765" cx="21.181485" stroke-width="0" stroke="#000" fill="#fff"/>
  <ellipse ry="3.187493" rx="3.031244" id="svg_29" cy="20.462736" cx="6.369015" stroke-width="0" stroke="#000" fill="#fff"/>
  <ellipse ry="3.187493" rx="3.031244" id="svg_30" cy="20.962735" cx="21.306484" stroke-width="0" stroke="#bf0000" fill="#ffffff"/>
  <g id="svg_1">
   <g id="svg_2">
    <path stroke-width="0" stroke="#fff" id="svg_3" fill="#bf0000" class="active-path" d="m24.84,0.616l-22.695,0c-1.186,0 -2.145,0.963 -2.145,2.146l0,21.464999c0,1.184 0.959,2.145 2.145,2.145l22.695,0c1.185999,0 2.148001,-0.961 2.148001,-2.145l0,-21.464999c0,-1.183 -0.963001,-2.146 -2.148001,-2.146zm-18.676,8.164c-1.533,0 -2.777,-1.244 -2.777,-2.775c0,-1.535 1.244,-2.779 2.777,-2.779c1.535,0 2.779,1.244 2.779,2.779c0,1.531 -1.244,2.775 -2.779,2.775zm15,14.840001c-1.535,0 -2.778999,-1.244001 -2.778999,-2.777s1.243999,-2.777 2.778999,-2.777c1.531,0 2.777,1.243999 2.777,2.777s-1.246,2.777 -2.777,2.777zm-0.16,-14.791c-1.532999,0 -2.777,-1.244 -2.777,-2.775001c0,-1.535 1.244001,-2.777 2.777,-2.777s2.777,1.242 2.777,2.777c0,1.531 -1.243999,2.775001 -2.777,2.775001zm-14.772,14.727999c-1.529,0 -2.777,-1.243999 -2.777,-2.778999c0,-1.531 1.248,-2.775 2.777,-2.775c1.535,0 2.779,1.243999 2.779,2.775c0.001,1.535 -1.243,2.778999 -2.779,2.778999z"/>
    <g id="svg_4"/>
    <g id="svg_5"/>
    <g id="svg_6"/>
    <g id="svg_7"/>
    <g id="svg_8"/>
    <g id="svg_9"/>
    <g id="svg_10"/>
    <g id="svg_11"/>
    <g id="svg_12"/>
    <g id="svg_13"/>
    <g id="svg_14"/>
    <g id="svg_15"/>
    <g id="svg_16"/>
    <g id="svg_17"/>
    <g id="svg_18"/>
   </g>
  </g>
  <ellipse stroke="#007fff" ry="2.8125" rx="2.8125" id="svg_31" cy="13.375" cx="13.5" stroke-width="0" fill="#fff"/>
 </g>
</svg>